<svg xmlns="http://www.w3.org/2000/svg" width="1024" height="1024" viewBox="0 0 1024 1024">
  <defs>
    <linearGradient id="bg4" x1="120" y1="90" x2="910" y2="920" gradientUnits="userSpaceOnUse">
      <stop stop-color="#3A423B"/>
      <stop offset="1" stop-color="#252725"/>
    </linearGradient>
    <linearGradient id="paper4" x1="292" y1="215" x2="744" y2="788" gradientUnits="userSpaceOnUse">
      <stop stop-color="#FBFAF6"/>
      <stop offset=".66" stop-color="#F7F5F0"/>
      <stop offset="1" stop-color="#E7E3DA"/>
    </linearGradient>
    <linearGradient id="edge4" x1="714" y1="271" x2="780" y2="765" gradientUnits="userSpaceOnUse">
      <stop stop-color="#E5E1D9"/>
      <stop offset="1" stop-color="#CFCBC2"/>
    </linearGradient>
    <filter id="shadow4" x="-35%" y="-35%" width="170%" height="170%">
      <feDropShadow dx="0" dy="38" stdDeviation="30" flood-color="#000000" flood-opacity=".38"/>
    </filter>
    <filter id="blur4" x="-20%" y="-20%" width="140%" height="140%">
      <feGaussianBlur stdDeviation="10"/>
    </filter>
  </defs>
  <rect width="1024" height="1024" rx="225" fill="url(#bg4)"/>
  <ellipse cx="520" cy="802" rx="274" ry="56" fill="#000000" opacity=".22" filter="url(#blur4)"/>
  <g filter="url(#shadow4)">
    <path d="M327 238c129-35 256-17 386 31 22 8 38 28 40 52l42 438c2 22-15 39-36 34-132-30-270-38-416-22-23 3-43-13-45-35l-45-445c-3-23 12-47 35-53z" fill="url(#edge4)"/>
    <path d="M299 218c128-30 257-10 392 45 21 9 37 29 39 52l39 413c2 23-16 41-38 36-139-31-280-38-424-18-24 3-44-12-47-36l-40-427c-2-29 15-58 43-65z" fill="url(#paper4)"/>
    <path d="M299 218c128-30 257-10 392 45 20 8 34 26 38 47-165-39-327-49-494-12l-15-15c-2-29 15-58 43-65z" fill="#FFFFFF" opacity=".28"/>
    <path d="M300 733c139-18 282-10 429 21-9 8-22 12-36 9-126-25-256-30-386-17z" fill="#D6D2CA" opacity=".4"/>
    <g fill="none" stroke-linecap="round" stroke-linejoin="round" transform="rotate(5 512 512)">
      <path d="M337 393c38-15 74 20 113 9 37-11 70-24 110-4 34 17 68 14 101-4" stroke="#8F8E89" stroke-width="19" opacity=".66"/>
      <path d="M340 485c39 13 72-13 110-5 34 8 64 25 100 8 33-16 66-12 99 6" stroke="#B4B3AD" stroke-width="18" opacity=".72"/>
      <path d="M356 574c30-11 62-3 94 11 40 17 75-15 116-3 25 7 50 8 75-4" stroke="#6F6E69" stroke-width="16" opacity=".56"/>
      <path d="M376 657c31 9 57-5 87-2 26 3 47 14 75 2" stroke="#9A9A94" stroke-width="15" opacity=".58"/>
    </g>
  </g>
</svg>
