<svg xmlns="http://www.w3.org/2000/svg" width="1024" height="1024" viewBox="0 0 1024 1024">
  <defs>
    <linearGradient id="bg5" x1="110" y1="70" x2="920" y2="950" gradientUnits="userSpaceOnUse">
      <stop stop-color="#BFC1BC"/>
      <stop offset=".55" stop-color="#8F948E"/>
      <stop offset="1" stop-color="#5D625D"/>
    </linearGradient>
    <linearGradient id="paper5" x1="300" y1="210" x2="725" y2="812" gradientUnits="userSpaceOnUse">
      <stop stop-color="#FBFAF6"/>
      <stop offset=".66" stop-color="#F7F5F0"/>
      <stop offset="1" stop-color="#E8E4DC"/>
    </linearGradient>
    <linearGradient id="fold5" x1="274" y1="500" x2="748" y2="600" gradientUnits="userSpaceOnUse">
      <stop stop-color="#E0DDD5"/>
      <stop offset=".5" stop-color="#F9F7F2"/>
      <stop offset="1" stop-color="#D6D2CA"/>
    </linearGradient>
    <linearGradient id="dog5" x1="640" y1="215" x2="756" y2="336" gradientUnits="userSpaceOnUse">
      <stop stop-color="#FFFFFF"/>
      <stop offset=".7" stop-color="#F1EEE7"/>
      <stop offset="1" stop-color="#D6D2CA"/>
    </linearGradient>
    <filter id="shadow5" x="-30%" y="-30%" width="160%" height="160%">
      <feDropShadow dx="0" dy="32" stdDeviation="27" flood-color="#20211F" flood-opacity=".32"/>
    </filter>
    <filter id="blur5" x="-20%" y="-20%" width="140%" height="140%">
      <feGaussianBlur stdDeviation="8"/>
    </filter>
  </defs>
  <rect width="1024" height="1024" rx="225" fill="url(#bg5)"/>
  <ellipse cx="510" cy="803" rx="252" ry="50" fill="#20211F" opacity=".15" filter="url(#blur5)"/>
  <g transform="rotate(2 512 512)" filter="url(#shadow5)">
    <path d="M302 212h424c23 0 42 19 42 42v510c0 23-19 42-42 42H302c-23 0-42-19-42-42V254c0-23 19-42 42-42z" fill="url(#paper5)"/>
    <path d="M260 512c150 18 344 18 508 0v40c-158 22-354 23-508 2z" fill="url(#fold5)" opacity=".78"/>
    <path d="M278 525c133 12 326 12 472 0" fill="none" stroke="#BDB9B0" stroke-width="5" opacity=".38"/>
    <path d="M644 212h82c23 0 42 19 42 42v80c-44-7-89-48-124-122z" fill="#D3CFC6" opacity=".36"/>
    <path d="M640 212c39 77 82 118 128 122-44 12-90 2-137-29-4-34-1-65 9-93z" fill="url(#dog5)"/>
    <path d="M640 212c-9 29-12 60-9 93" fill="none" stroke="#C9C5BC" stroke-width="4" opacity=".45"/>
    <path d="M302 212h338c-8 24-11 50-10 78-132-11-249-5-370 12v-48c0-23 19-42 42-42z" fill="#FFFFFF" opacity=".25"/>
    <g fill="none" stroke-linecap="round" stroke-linejoin="round">
      <path d="M354 378c39-15 72 17 110 6 37-11 67-20 105-1 29 15 59 13 87-2" stroke="#6F6E69" stroke-width="18" opacity=".56"/>
      <path d="M350 464c36 12 69-12 104-5 34 7 62 21 99 5 29-13 58-10 88 5" stroke="#B4B3AD" stroke-width="17" opacity=".73"/>
      <path d="M365 636c34-10 65 8 99 11 38 3 68-17 105-5 29 9 57 7 86-8" stroke="#9A9A94" stroke-width="17" opacity=".64"/>
      <path d="M385 714c29 7 56-6 85-2 24 3 45 13 73 1" stroke="#8F8E89" stroke-width="15" opacity=".54"/>
    </g>
  </g>
</svg>
